<?xml version="1.0" encoding="UTF-8" standalone="no"?>
<!-- Created with Inkscape (http://www.inkscape.org/) -->

<svg
   xmlns:dc="http://purl.org/dc/elements/1.1/"
   xmlns:cc="http://creativecommons.org/ns#"
   xmlns:rdf="http://www.w3.org/1999/02/22-rdf-syntax-ns#"
   xmlns:svg="http://www.w3.org/2000/svg"
   xmlns="http://www.w3.org/2000/svg"
   xmlns:sodipodi="http://sodipodi.sourceforge.net/DTD/sodipodi-0.dtd"
   xmlns:inkscape="http://www.inkscape.org/namespaces/inkscape"
   version="1.1"
   width="267.49899"
   height="250.05"
   viewBox="155.2 145.8 267.499 250.05"
   id="Ebene_1"
   xml:space="preserve"
   inkscape:version="0.47 "
   sodipodi:docname="Radioactive_White.svg"><metadata
   id="metadata11"><rdf:RDF><cc:Work
       rdf:about=""><dc:format>image/svg+xml</dc:format><dc:type
         rdf:resource="http://purl.org/dc/dcmitype/StillImage" /></cc:Work></rdf:RDF></metadata><sodipodi:namedview
   pagecolor="#ffffff"
   bordercolor="#666666"
   borderopacity="1"
   objecttolerance="10"
   gridtolerance="10"
   guidetolerance="10"
   inkscape:pageopacity="0"
   inkscape:pageshadow="2"
   inkscape:window-width="1680"
   inkscape:window-height="1028"
   id="namedview9"
   showgrid="false"
   inkscape:zoom="0.94381123"
   inkscape:cx="-69.151248"
   inkscape:cy="125.025"
   inkscape:window-x="-8"
   inkscape:window-y="-8"
   inkscape:window-maximized="1"
   inkscape:current-layer="g3" /><defs
   id="defs15"><inkscape:perspective
     sodipodi:type="inkscape:persp3d"
     inkscape:vp_x="0 : 125.025 : 1"
     inkscape:vp_y="0 : 1000 : 0"
     inkscape:vp_z="267.49899 : 125.025 : 1"
     inkscape:persp3d-origin="133.7495 : 83.350001 : 1"
     id="perspective13" /></defs>
<g
   id="g3">
	<path
   d="m 271.964,292.3 -39.452,68.367 c 35.911,20.737 76.796,20.737 112.707,0 L 305.768,292.3 c -0.253,0.169 -0.506,0.338 -0.759,0.507 -0.928,0.505 -1.939,1.011 -2.95,1.432 -1.012,0.422 -2.023,0.844 -3.119,1.181 -1.096,0.338 -2.108,0.591 -3.204,0.844 -1.096,0.252 -2.192,0.421 -3.372,0.505 -1.097,0.085 -2.276,0.169 -3.457,0.169 -1.18,0 -2.275,-0.084 -3.456,-0.169 -1.096,-0.084 -2.276,-0.253 -3.372,-0.505 -1.096,-0.253 -2.191,-0.506 -3.204,-0.844 -1.096,-0.337 -2.107,-0.674 -3.119,-1.181 -1.012,-0.421 -2.023,-0.927 -2.95,-1.432 -0.337,-0.169 -0.589,-0.338 -0.842,-0.507 z"
   id="path5"
   style="fill:#ffffff;stroke:#000000;stroke-width:3;stroke-miterlimit:4;stroke-opacity:1;stroke-dasharray:none;fill-opacity:1" />
	<path
   d="M 232.512,165.43 C 196.6,186.167 176.2,221.574 176.2,263.048 h 78.903 c 0,-1.18 0.084,-2.36 0.169,-3.456 0.084,-1.096 0.337,-2.276 0.505,-3.372 0.253,-1.096 0.506,-2.191 0.843,-3.203 0.337,-1.096 0.674,-2.107 1.18,-3.119 0.422,-1.012 0.927,-2.024 1.434,-2.951 0.505,-0.927 1.096,-1.854 1.686,-2.782 0.589,-0.928 1.264,-1.771 1.938,-2.614 0.674,-0.843 1.433,-1.601 2.191,-2.36 0.759,-0.758 1.602,-1.517 2.445,-2.191 0.843,-0.674 1.686,-1.349 2.613,-1.938 0.674,-0.421 1.349,-0.843 2.023,-1.265 L 232.512,165.43 z"
   id="path7"
   style="fill:#ffffff;stroke:#000000;stroke-width:3;stroke-miterlimit:4;stroke-opacity:1;stroke-dasharray:none;fill-opacity:1" />
	<path
   d="m 345.219,165.43 -39.451,68.367 c 0.674,0.421 1.349,0.758 2.023,1.265 0.927,0.589 1.77,1.265 2.612,1.938 0.843,0.674 1.603,1.434 2.445,2.191 0.758,0.759 1.518,1.602 2.191,2.36 0.674,0.843 1.35,1.686 1.938,2.614 0.591,0.927 1.181,1.855 1.687,2.782 0.506,0.927 1.012,1.939 1.433,2.951 0.422,1.012 0.844,2.023 1.181,3.119 0.337,1.096 0.591,2.107 0.843,3.203 0.253,1.096 0.422,2.191 0.506,3.372 0.085,1.096 0.169,2.276 0.169,3.456 h 78.903 c -0.168,-41.474 -20.568,-76.881 -56.48,-97.618 z"
   id="path9"
   style="fill:#ffffff;stroke:#000000;stroke-width:3;stroke-miterlimit:4;stroke-opacity:1;stroke-dasharray:none;fill-opacity:1" />
	<circle
   cx="288.823"
   cy="263.048"
   r="22.507"
   id="circle11"
   style="fill:#ffffff;stroke:#000000;stroke-width:3;stroke-miterlimit:4;stroke-opacity:1;stroke-dasharray:none;fill-opacity:1" />
</g>
</svg>